HIERARCHY
ROOT hips
{
  OFFSET 0 10.074487846421558 1.314567655973056
  CHANNELS 6 Xposition Yposition Zposition Yrotation Xrotation Zrotation
  JOINT spine
  {
    OFFSET -7.042773748992335e-31 0.5690686926897363 0
    CHANNELS 3 Yrotation Xrotation Zrotation
    JOINT chest
    {
      OFFSET 0 1.2435964857087873 0
      CHANNELS 3 Yrotation Xrotation Zrotation
      JOINT upperChest
      {
        OFFSET 0 1.194994586872362 0
        CHANNELS 3 Yrotation Xrotation Zrotation
        JOINT neck
        {
          OFFSET 0 1.515103653293861 0
          CHANNELS 3 Yrotation Xrotation Zrotation
          JOINT head
          {
            OFFSET 0 0.8111851616465653 0
            CHANNELS 3 Yrotation Xrotation Zrotation
            JOINT leftEye
            {
              OFFSET 0.27141371691966987 0.7490044407698551 0.18219031050045686
              CHANNELS 3 Yrotation Xrotation Zrotation
              End Site
              {
                OFFSET 0.27141371691966987 0.7490044407698551 0.18219031050045686
              }
            }
            JOINT rightEye
            {
              OFFSET -0.2714136877644943 0.7490044019380786 0.18219040411850668
              CHANNELS 3 Yrotation Xrotation Zrotation
              End Site
              {
                OFFSET -0.2714136877644943 0.7490044019380786 0.18219040411850668
              }
            }
          }
        }
        JOINT leftShoulder
        {
          OFFSET 0.4137993136083964 1.1593397335613034 0
          CHANNELS 3 Yrotation Xrotation Zrotation
          JOINT leftUpperArm
          {
            OFFSET 1.0096991868951026 0 0
            CHANNELS 3 Yrotation Xrotation Zrotation
            JOINT leftLowerArm
            {
              OFFSET 2.418380967671622 0 0
              CHANNELS 3 Yrotation Xrotation Zrotation
              JOINT leftHand
              {
                OFFSET 2.361538296260114 0 0
                CHANNELS 3 Yrotation Xrotation Zrotation
                JOINT leftIndexProximal
                {
                  OFFSET 0.7243699271447109 0.08118285989887508 0.2022042461579805
                  CHANNELS 3 Yrotation Xrotation Zrotation
                  JOINT leftIndexIntermediate
                  {
                    OFFSET 0.36553107045252053 -0.010567764853200323 -0.014102670024158437
                    CHANNELS 3 Yrotation Xrotation Zrotation
                    JOINT leftIndexDistal
                    {
                      OFFSET 0.22505120770060527 -0.007821041598631284 -0.007511611613336286
                      CHANNELS 3 Yrotation Xrotation Zrotation
                      End Site
                      {
                        OFFSET 0.22505120770060527 -0.007821041598631284 -0.007511611613336286
                      }
                    }
                  }
                }
                JOINT leftLittleProximal
                {
                  OFFSET 0.6721063881632002 0.08118279568569564 -0.3209324945517917
                  CHANNELS 3 Yrotation Xrotation Zrotation
                  JOINT leftLittleIntermediate
                  {
                    OFFSET 0.34587329423120616 5.3042709780015684e-8 -5.929537746918179e-8
                    CHANNELS 3 Yrotation Xrotation Zrotation
                    JOINT leftLittleDistal
                    {
                      OFFSET 0.1992782500022232 0.0030983716482184676 0.0038310952896712935
                      CHANNELS 3 Yrotation Xrotation Zrotation
                      End Site
                      {
                        OFFSET 0.1992782500022232 0.0030983716482184676 0.0038310952896712935
                      }
                    }
                  }
                }
                JOINT leftMiddleProximal
                {
                  OFFSET 0.7301229696860206 0.08118412848995638 0.022516891543707507
                  CHANNELS 3 Yrotation Xrotation Zrotation
                  JOINT leftMiddleIntermediate
                  {
                    OFFSET 0.4076277831942017 -0.000001240188283180288 -1.6203245635504349e-7
                    CHANNELS 3 Yrotation Xrotation Zrotation
                    JOINT leftMiddleDistal
                    {
                      OFFSET 0.2514739255593972 0.0000013850839168938478 -1.8644847207816007e-8
                      CHANNELS 3 Yrotation Xrotation Zrotation
                      End Site
                      {
                        OFFSET 0.2514739255593972 0.0000013850839168938478 -1.8644847207816007e-8
                      }
                    }
                  }
                }
                JOINT leftRingProximal
                {
                  OFFSET 0.7218060861525873 0.08118280646416753 -0.1494689818508163
                  CHANNELS 3 Yrotation Xrotation Zrotation
                  JOINT leftRingIntermediate
                  {
                    OFFSET 0.3781267508900358 0.000001373626195677602 -1.4143108284514483e-7
                    CHANNELS 3 Yrotation Xrotation Zrotation
                    JOINT leftRingDistal
                    {
                      OFFSET 0.21814333268795483 -0.0027137626495670197 -0.004991775417842292
                      CHANNELS 3 Yrotation Xrotation Zrotation
                      End Site
                      {
                        OFFSET 0.21814333268795483 -0.0027137626495670197 -0.004991775417842292
                      }
                    }
                  }
                }
                JOINT leftThumbProximal
                {
                  OFFSET 0.10743676110519984 -0.16423092885053192 -0.07708859146227388
                  CHANNELS 3 Yrotation Xrotation Zrotation
                  JOINT leftThumbIntermediate
                  {
                    OFFSET 0.40350402100066307 -0.01735099334274981 0.315629965828783
                    CHANNELS 3 Yrotation Xrotation Zrotation
                    JOINT leftThumbDistal
                    {
                      OFFSET 0.2320014489535681 -0.01842351809041043 0.21271298411519196
                      CHANNELS 3 Yrotation Xrotation Zrotation
                      End Site
                      {
                        OFFSET 0.2320014489535681 -0.01842351809041043 0.21271298411519196
                      }
                    }
                  }
                }
              }
            }
          }
        }
        JOINT rightShoulder
        {
          OFFSET -0.41379931360839656 1.1593397335613034 0
          CHANNELS 3 Yrotation Xrotation Zrotation
          JOINT rightUpperArm
          {
            OFFSET -1.0096991868951024 0 0
            CHANNELS 3 Yrotation Xrotation Zrotation
            JOINT rightLowerArm
            {
              OFFSET -2.4183809676716232 0 0
              CHANNELS 3 Yrotation Xrotation Zrotation
              JOINT rightHand
              {
                OFFSET -2.3615382962601132 0 0
                CHANNELS 3 Yrotation Xrotation Zrotation
                JOINT rightIndexProximal
                {
                  OFFSET -0.7243699271447109 0.08118285989887508 0.2022042461579805
                  CHANNELS 3 Yrotation Xrotation Zrotation
                  JOINT rightIndexIntermediate
                  {
                    OFFSET -0.36553107045252053 -0.010567764853200323 -0.014102670024158437
                    CHANNELS 3 Yrotation Xrotation Zrotation
                    JOINT rightIndexDistal
                    {
                      OFFSET -0.22505120770060527 -0.007821041598631284 -0.007511611613336286
                      CHANNELS 3 Yrotation Xrotation Zrotation
                      End Site
                      {
                        OFFSET -0.22505120770060527 -0.007821041598631284 -0.007511611613336286
                      }
                    }
                  }
                }
                JOINT rightLittleProximal
                {
                  OFFSET -0.6721063881632002 0.08118279568569564 -0.3209324945517917
                  CHANNELS 3 Yrotation Xrotation Zrotation
                  JOINT rightLittleIntermediate
                  {
                    OFFSET -0.34587329423120616 5.3042709780015684e-8 -5.929537746918179e-8
                    CHANNELS 3 Yrotation Xrotation Zrotation
                    JOINT rightLittleDistal
                    {
                      OFFSET -0.1992782500022232 0.0030983716482184676 0.0038310952896712935
                      CHANNELS 3 Yrotation Xrotation Zrotation
                      End Site
                      {
                        OFFSET -0.1992782500022232 0.0030983716482184676 0.0038310952896712935
                      }
                    }
                  }
                }
                JOINT rightMiddleProximal
                {
                  OFFSET -0.7301229696860206 0.08118412848995638 0.022516891543707507
                  CHANNELS 3 Yrotation Xrotation Zrotation
                  JOINT rightMiddleIntermediate
                  {
                    OFFSET -0.4076277831942017 -0.000001240188283180288 -1.6203245635504349e-7
                    CHANNELS 3 Yrotation Xrotation Zrotation
                    JOINT rightMiddleDistal
                    {
                      OFFSET -0.2514739255593972 0.0000013850839168938478 -1.8644847207816007e-8
                      CHANNELS 3 Yrotation Xrotation Zrotation
                      End Site
                      {
                        OFFSET -0.2514739255593972 0.0000013850839168938478 -1.8644847207816007e-8
                      }
                    }
                  }
                }
                JOINT rightRingProximal
                {
                  OFFSET -0.7218060861525873 0.08118280646416753 -0.1494689818508163
                  CHANNELS 3 Yrotation Xrotation Zrotation
                  JOINT rightRingIntermediate
                  {
                    OFFSET -0.3781267508900358 0.000001373626195677602 -1.4143108284514483e-7
                    CHANNELS 3 Yrotation Xrotation Zrotation
                    JOINT rightRingDistal
                    {
                      OFFSET -0.21814333268795483 -0.0027137626495670197 -0.004991775417842292
                      CHANNELS 3 Yrotation Xrotation Zrotation
                      End Site
                      {
                        OFFSET -0.21814333268795483 -0.0027137626495670197 -0.004991775417842292
                      }
                    }
                  }
                }
                JOINT rightThumbProximal
                {
                  OFFSET -0.10743676110519984 -0.16423092885053192 -0.07708859146227388
                  CHANNELS 3 Yrotation Xrotation Zrotation
                  JOINT rightThumbIntermediate
                  {
                    OFFSET -0.40350402100066307 -0.01735099334274981 0.315629965828783
                    CHANNELS 3 Yrotation Xrotation Zrotation
                    JOINT rightThumbDistal
                    {
                      OFFSET -0.2320014489535681 -0.01842351809041043 0.21271298411519196
                      CHANNELS 3 Yrotation Xrotation Zrotation
                      End Site
                      {
                        OFFSET -0.2320014489535681 -0.01842351809041043 0.21271298411519196
                      }
                    }
                  }
                }
              }
            }
          }
        }
      }
    }
  }
  JOINT leftUpperLeg
  {
    OFFSET 0.8487163290887698 -0.43932186100277326 0
    CHANNELS 3 Yrotation Xrotation Zrotation
    JOINT leftLowerLeg
    {
      OFFSET 0 -3.882816707004296 0
      CHANNELS 3 Yrotation Xrotation Zrotation
      JOINT leftFoot
      {
        OFFSET 0 -4.570431027442807 0.004629272230691511
        CHANNELS 3 Yrotation Xrotation Zrotation
        JOINT leftToes
        {
          OFFSET 0 -0.698875637876343 1.214565366696912
          CHANNELS 3 Yrotation Xrotation Zrotation
          End Site
          {
            OFFSET 0 -0.698875637876343 1.214565366696912
          }
        }
      }
    }
  }
  JOINT rightUpperLeg
  {
    OFFSET -0.8487163290887698 -0.43932186100277326 0
    CHANNELS 3 Yrotation Xrotation Zrotation
    JOINT rightLowerLeg
    {
      OFFSET 0 -3.882816707004296 0
      CHANNELS 3 Yrotation Xrotation Zrotation
      JOINT rightFoot
      {
        OFFSET 0 -4.570431027442807 0.004629272230691511
        CHANNELS 3 Yrotation Xrotation Zrotation
        JOINT rightToes
        {
          OFFSET 0 -0.698875637876343 1.214565366696912
          CHANNELS 3 Yrotation Xrotation Zrotation
          End Site
          {
            OFFSET 0 -0.698875637876343 1.214565366696912
          }
        }
      }
    }
  }
}
MOTION
Frames: 4
Frame Time: 0.03333333333333333
-0.025675078853964806 -8.569668810891468 -0.20632785558700562 -5.166129926899461 -50.04299516697396 6.765780573994031 1.3252067786743666 17.40341797237559 -1.2564507206077298 0.3077356633553521 28.132542120176453 -2.596998807200848 0 0 0 -1.197600838717351 3.798764290966581 -0.1401055936074309 -6.748896289154092 0.8343137191064602 2.2707876491279064 0 0 0 0 0 0 -26.187061754470403 1.8899544634062186 -2.1292596910097306 -48.9775497502983 -32.91323610979166 -0.40001354025227825 -28.125358996225195 0.08739393182443021 0.3489048820441041 29.265588014441736 -60.39842197367418 -72.16652320999312 -1.0642259655959994 0.014077843779211256 -7.578175071389805 1.5318500547544782 0.23428142411080288 -17.390518237467866 0.7174868627074511 0.05044345816213111 -8.048025260964485 5.220993697329674 0.8408516024061452 -27.11215839195326 1.534377086548616 0.23504902641774406 -17.41986808602456 1.4573096996366668 0.2115316258978013 -16.519509341427746 2.4613852522689355 -0.10432209251752317 -15.73504578962496 1.5343137312918471 0.2350190907274032 -17.41921839306809 1.6201011832403416 0.26278575284491057 -18.426944165995295 3.377510675859626 0.08921545339202684 -21.171906540923636 1.8304309514337351 0.33797415422997457 -20.923343706208165 1.5737140049374756 0.24755929586636566 -17.881532033012597 2.221022819858051 -0.6675809321546166 4.783276650365596 26.11895529487397 10.71834294595826 21.928789268569215 3.766502786165244 -13.790934051221674 8.085590198179894 28.77187081953372 2.0072911359114083 2.50034631544203 41.70042564212608 -25.377926001194822 6.956263139273876 39.57105305329966 0.16960260929717508 -0.47146091297322 22.872666679352175 -69.81753130354215 10.982076782010699 1.3523663251824736 0.03257752281662686 6.812352110254767 -1.17492122312356 0.18005172680703332 17.4250869770725 -0.5505072677403224 0.038819776654099414 8.0664562907235 -4.55604582843719 0.6706830634397801 26.473451020488152 -1.176413373196111 0.1805016810860878 17.44819225807317 -1.1172272280911242 0.16243054705137694 16.544255999859327 -2.014690696540153 -0.16056720534665983 15.030780812028661 -1.1765166585438975 0.180562379357558 17.449853463186486 -1.2423084832596978 0.20189044430265513 18.45937901323972 -2.8192215081210787 -0.014544287684147068 20.50022378504028 -1.4035641121674354 0.2596542119664087 20.96070410950091 -1.206505616797472 0.19011027338814926 17.90932636295544 -0.2236000778284809 -1.6665162879997801 -4.207896447879985 -30.668904516267744 11.047831698573832 -22.20107077702639 -3.8595086848714084 -15.534968090661808 -11.622282733753996 3.7349853943211095 -69.19525645361121 0.32139623480400076 -17.305741212292247 54.5476877653752 -17.620070520270605 -19.48385000133895 46.28984799135385 -30.444991869265113 -0.000013329550018143314 7.034167218942759 -0.000007097189384337393 -18.09333109112064 -68.67710063776742 8.872719879696971 15.692137193982617 50.2109350204754 15.735425636074744 13.738525498285748 40.384092894917785 24.15625859433044 -0.00001778686234627682 5.035808854392912 0.0000030869849201311577
-0.05157828330993652 -8.565651338624317 -0.20372605323791504 -6.464403063939201 -49.94188447640167 8.106509019359473 1.0916831946348795 17.408673705256582 -1.3849199284363485 -0.02206203156047197 28.140028132012393 -2.6663750278170166 0 0 0 -1.0951503283951618 3.7002819931962607 -0.3252506451396193 -6.313980853124406 0.8929324216055603 1.7852772767404985 0 0 0 0 0 0 -26.277170559204897 1.8568690580649048 -2.2924607214245016 -48.70884713822193 -32.939698582305326 -0.47914967770834355 -28.13612118331656 0.08747466688885878 0.3490266227157681 29.185813317295317 -60.44080243597893 -72.54549742836312 -1.0642259655959994 0.014077843779211256 -7.578175071389805 1.5318500547544782 0.23428142411080288 -17.390518237467866 0.7174868627074511 0.05044345816213111 -8.048025260964485 5.220993697329674 0.8408516024061452 -27.11215839195326 1.534377086548616 0.23504902641774406 -17.41986808602456 1.4573096996366668 0.2115316258978013 -16.519509341427746 2.4613852522689355 -0.10432209251752317 -15.73504578962496 1.5343137312918471 0.2350190907274032 -17.41921839306809 1.6201011832403416 0.26278575284491057 -18.426944165995295 3.377510675859626 0.08921545339202684 -21.171906540923636 1.8304309514337351 0.33797415422997457 -20.923343706208165 1.5737140049374756 0.24755929586636566 -17.881532033012597 2.221022819858051 -0.6675809321546166 4.783276650365596 26.11895529487397 10.71834294595826 21.928789268569215 3.766502786165244 -13.790934051221674 8.085590198179894 28.701733753346975 2.065139881148341 2.2405689639918016 41.85000989324728 -25.48755550720362 6.99165181382368 39.56671583468957 0.16957175324883023 -0.4714343934116349 22.031431982319784 -69.43298780249889 11.464344517351492 1.3523663251824736 0.03257752281662686 6.812352110254767 -1.17492122312356 0.18005172680703332 17.4250869770725 -0.5505072677403224 0.038819776654099414 8.0664562907235 -4.55604582843719 0.6706830634397801 26.473451020488152 -1.176413373196111 0.1805016810860878 17.44819225807317 -1.1172272280911242 0.16243054705137694 16.544255999859327 -2.014690696540153 -0.16056720534665983 15.030780812028661 -1.1765166585438975 0.180562379357558 17.449853463186486 -1.2423084832596978 0.20189044430265513 18.45937901323972 -2.8192215081210787 -0.014544287684147068 20.50022378504028 -1.4035641121674354 0.2596542119664087 20.96070410950091 -1.206505616797472 0.19011027338814926 17.90932636295544 -0.2236000778284809 -1.6665162879997801 -4.207896447879985 -30.668904516267744 11.047831698573832 -22.20107077702639 -3.8595086848714084 -15.534968090661808 -11.622282733753996 4.59710185406616 -69.08888600382392 0.4628405010709405 -17.344950908015885 54.594234137263946 -18.00864831462694 -19.24572729443105 46.10733578205143 -30.42583335537393 -1.3786590799738625e-7 7.029793306153076 0.0000016801337842676609 -17.36372832149338 -68.61012438358921 8.879434475898135 15.675968881868583 50.09356123777622 15.699001225031235 14.229853160628409 40.67421715041615 24.234085376926902 9.007747240322231e-7 5.090727422693929 0.0000020884151231561112
-0.10106325894594193 -8.557526748704273 -0.199030801653862 -8.974306674741053 -49.73462686834749 10.721236957215337 0.6015466901797318 17.35374560096933 -1.6744659248587155 -0.5978522345012013 28.028643900588847 -2.8085094069139442 0 0 0 -0.8961197071912904 3.5727394639482646 -0.5225324245649393 -5.318148217163621 1.0191549990317703 0.9418625757530456 0 0 0 0 0 0 -26.338549145434936 1.8598443165135987 -2.273933480244248 -48.227815808562056 -32.94607940349855 -0.9767310048879119 -28.121906131335457 0.08737787685914361 0.34887049157108646 29.164322175853282 -61.10866134331934 -73.19987967882616 -1.0642259655959994 0.014077843779211256 -7.578175071389805 1.5318500547544782 0.23428142411080288 -17.390518237467866 0.7174868627074511 0.05044345816213111 -8.048025260964485 5.220993697329674 0.8408516024061452 -27.11215839195326 1.534377086548616 0.23504902641774406 -17.41986808602456 1.4573096996366668 0.2115316258978013 -16.519509341427746 2.4613852522689355 -0.10432209251752317 -15.73504578962496 1.5343137312918471 0.2350190907274032 -17.41921839306809 1.6201011832403416 0.26278575284491057 -18.426944165995295 3.377510675859626 0.08921545339202684 -21.171906540923636 1.8304309514337351 0.33797415422997457 -20.923343706208165 1.5737140049374756 0.24755929586636566 -17.881532033012597 2.221022819858051 -0.6675809321546166 4.783276650365596 26.11895529487397 10.71834294595826 21.928789268569215 3.766502786165244 -13.790934051221674 8.085590198179894 28.652677143969957 2.06088682583467 2.257747673687192 42.05457095558918 -25.52969738773442 6.811513750698198 39.573704174128366 0.16962691527217053 -0.4715073636491611 20.442268563538608 -68.57011105563197 12.600663509565361 1.3523663251824736 0.03257752281662686 6.812352110254767 -1.17492122312356 0.18005172680703332 17.4250869770725 -0.5505072677403224 0.038819776654099414 8.0664562907235 -4.55604582843719 0.6706830634397801 26.473451020488152 -1.176413373196111 0.1805016810860878 17.44819225807317 -1.1172272280911242 0.16243054705137694 16.544255999859327 -2.014690696540153 -0.16056720534665983 15.030780812028661 -1.1765166585438975 0.180562379357558 17.449853463186486 -1.2423084832596978 0.20189044430265513 18.45937901323972 -2.8192215081210787 -0.014544287684147068 20.50022378504028 -1.4035641121674354 0.2596542119664087 20.96070410950091 -1.206505616797472 0.19011027338814926 17.90932636295544 -0.2236000778284809 -1.6665162879997801 -4.207896447879985 -30.668904516267744 11.047831698573832 -22.20107077702639 -3.8595086848714084 -15.534968090661808 -11.622282733753996 6.472757774761003 -68.8271598917278 0.6342299542144457 -17.41721818997571 54.66710903549811 -18.827073137524287 -18.77592698575808 45.735527774925615 -30.390972917556006 0.0000025242356616466304 7.079680039659926 0.000004159940915190727 -15.680622754227885 -68.4202520715505 8.649280157637305 15.600184041539586 49.79260933687949 15.471872153491885 14.68204086938761 41.347236383741034 24.32831750282566 -0.000007501643339318533 5.136282529782427 0.000009072803879554314
-0.14522188901901245 -8.54925350480016 -0.1964309811592102 -11.199070864810755 -49.59015449559937 13.113569181626978 0.10402407181713082 17.201271520364326 -1.9428154472226242 -1.0463835212469785 27.74513254609264 -2.897320494270768 0 0 0 -0.7187162639506451 3.6351503739162676 -0.6179944188676848 -4.396183616990395 1.184039830089477 0.3807656379443387 0 0 0 0 0 0 -26.421350954509297 1.8881315197446622 -2.1739714055456774 -47.923905317704715 -32.799806393760704 -1.6813068552889565 -28.025321105024158 0.08679124030506943 0.3477829806190411 29.860328394875406 -62.36199653072124 -74.06840251235043 -1.0642259655959994 0.014077843779211256 -7.578175071389805 1.5318500547544782 0.23428142411080288 -17.390518237467866 0.7174868627074511 0.05044345816213111 -8.048025260964485 5.220993697329674 0.8408516024061452 -27.11215839195326 1.534377086548616 0.23504902641774406 -17.41986808602456 1.4573096996366668 0.2115316258978013 -16.519509341427746 2.4613852522689355 -0.10432209251752317 -15.73504578962496 1.5343137312918471 0.2350190907274032 -17.41921839306809 1.6201011832403416 0.26278575284491057 -18.426944165995295 3.377510675859626 0.08921545339202684 -21.171906540923636 1.8304309514337351 0.33797415422997457 -20.923343706208165 1.5737140049374756 0.24755929586636566 -17.881532033012597 2.221022819858051 -0.6675809321546166 4.783276650365596 26.11895529487397 10.71834294595826 21.928789268569215 3.766502786165244 -13.790934051221674 8.085590198179894 28.643516923759364 1.979779771561462 2.6181352454128857 41.958369828471625 -25.458724627413876 6.5820468289775445 39.595115644641595 0.16980245990807447 -0.47171370398309187 18.928627955296527 -68.0080804394273 14.256002941927049 1.3523663251824736 0.03257752281662686 6.812352110254767 -1.17492122312356 0.18005172680703332 17.4250869770725 -0.5505072677403224 0.038819776654099414 8.0664562907235 -4.55604582843719 0.6706830634397801 26.473451020488152 -1.176413373196111 0.1805016810860878 17.44819225807317 -1.1172272280911242 0.16243054705137694 16.544255999859327 -2.014690696540153 -0.16056720534665983 15.030780812028661 -1.1765166585438975 0.180562379357558 17.449853463186486 -1.2423084832596978 0.20189044430265513 18.45937901323972 -2.8192215081210787 -0.014544287684147068 20.50022378504028 -1.4035641121674354 0.2596542119664087 20.96070410950091 -1.206505616797472 0.19011027338814926 17.90932636295544 -0.2236000778284809 -1.6665162879997801 -4.207896447879985 -30.668904516267744 11.047831698573832 -22.20107077702639 -3.8595086848714084 -15.534968090661808 -11.622282733753996 8.58860035303197 -68.40901964403326 0.550994779762379 -17.459129939787545 54.64774480114645 -19.669870752661254 -18.303666920131928 45.39281781535117 -30.369788401110675 0.000005670206418001302 7.146832648444481 0.000005183199822917578 -13.809889348225742 -68.2173109023341 8.14224771970543 15.897590041760068 49.477198686790096 15.390995715684603 14.186818674425426 42.006481242255425 23.764680096752432 4.575429926757558e-7 5.132596512785084 0.000006294737772799323
